{
    "accessors" : [
        {
            "bufferView" : 0,
            "componentType" : 5123,
            "count" : 1296,
            "max" : [
                265
            ],
            "min" : [
                0
            ],
            "type" : "SCALAR"
        },
        {
            "bufferView" : 1,
            "componentType" : 5126,
            "count" : 266,
            "max" : [
                1.0338165760040283,
                1.962855339050293,
                0.5510468482971191
            ],
            "min" : [
                -0.9607983231544495,
                0.01141202449798584,
                -0.5510467290878296
            ],
            "type" : "VEC3"
        },
        {
            "bufferView" : 2,
            "componentType" : 5126,
            "count" : 266,
            "max" : [
                0.9801324605941772,
                0.964140772819519,
                1.0
            ],
            "min" : [
                -0.999755859375,
                -1.0,
                -1.0
            ],
            "type" : "VEC3"
        },
        {
            "bufferView" : 3,
            "componentType" : 5126,
            "count" : 266,
            "max" : [
                0.996210515499115,
                0.9237812161445618,
                0.9999939799308777,
                1.0
            ],
            "min" : [
                -0.996065616607666,
                -0.9623680114746094,
                -0.999997615814209,
                1.0
            ],
            "type" : "VEC4"
        },
        {
            "bufferView" : 4,
            "componentType" : 5126,
            "count" : 266,
            "max" : [
                0.9130805730819702,
                0.9688876830041409
            ],
            "min" : [
                0.031112316995859146,
                0.10845828056335449
            ],
            "type" : "VEC2"
        },
        {
            "bufferView" : 5,
            "componentType" : 5123,
            "count" : 266,
            "max" : [
                0,
                0,
                0,
                0
            ],
            "min" : [
                0,
                0,
                0,
                0
            ],
            "type" : "VEC4"
        },
        {
            "bufferView" : 6,
            "componentType" : 5126,
            "count" : 266,
            "max" : [
                1.0000005960464478,
                0.0,
                0.0,
                0.0
            ],
            "min" : [
                0.9999993443489075,
                0.0,
                0.0,
                0.0
            ],
            "type" : "VEC4"
        },
        {
            "bufferView" : 7,
            "componentType" : 5126,
            "count" : 1,
            "max" : [
                1.0,
                0.0,
                0.0,
                0.0,
                0.0,
                1.0,
                0.0,
                0.0,
                0.0,
                0.0,
                1.0,
                0.0,
                0.05121573805809021,
                -0.06308937072753906,
                -0.3752883970737457,
                1.0
            ],
            "min" : [
                1.0,
                0.0,
                0.0,
                0.0,
                0.0,
                1.0,
                0.0,
                0.0,
                0.0,
                0.0,
                1.0,
                0.0,
                0.05121573805809021,
                -0.06308937072753906,
                -0.3752883970737457,
                1.0
            ],
            "type" : "MAT4"
        },
        {
            "bufferView" : 8,
            "componentType" : 5126,
            "count" : 180,
            "max" : [
                7.458333333333333
            ],
            "min" : [
                0.0
            ],
            "type" : "SCALAR"
        },
        {
            "bufferView" : 9,
            "componentType" : 5126,
            "count" : 180,
            "max" : [
                0.0,
                0.0,
                0.0
            ],
            "min" : [
                0.0,
                0.0,
                0.0
            ],
            "type" : "VEC3"
        },
        {
            "bufferView" : 10,
            "componentType" : 5126,
            "count" : 180,
            "max" : [
                7.458333333333333
            ],
            "min" : [
                0.0
            ],
            "type" : "SCALAR"
        },
        {
            "bufferView" : 11,
            "componentType" : 5126,
            "count" : 180,
            "max" : [
                0.0,
                1.0,
                0.0,
                1.0
            ],
            "min" : [
                0.0,
                -0.9999364614486694,
                0.0,
                0.0
            ],
            "type" : "VEC4"
        },
        {
            "bufferView" : 12,
            "componentType" : 5126,
            "count" : 180,
            "max" : [
                7.458333333333333
            ],
            "min" : [
                0.0
            ],
            "type" : "SCALAR"
        },
        {
            "bufferView" : 13,
            "componentType" : 5126,
            "count" : 180,
            "max" : [
                1.0000003576278687,
                1.0,
                1.0000003576278687
            ],
            "min" : [
                0.9999996423721313,
                1.0,
                0.9999996423721313
            ],
            "type" : "VEC3"
        }
    ],
    "animations" : [
        {
            "channels" : [
                {
                    "sampler" : 0,
                    "target" : {
                        "node" : 2,
                        "path" : "translation"
                    }
                },
                {
                    "sampler" : 1,
                    "target" : {
                        "node" : 2,
                        "path" : "rotation"
                    }
                },
                {
                    "sampler" : 2,
                    "target" : {
                        "node" : 2,
                        "path" : "scale"
                    }
                }
            ],
            "name" : "IdleAnin",
            "samplers" : [
                {
                    "input" : 8,
                    "interpolation" : "LINEAR",
                    "output" : 9
                },
                {
                    "input" : 10,
                    "interpolation" : "LINEAR",
                    "output" : 11
                },
                {
                    "input" : 12,
                    "interpolation" : "LINEAR",
                    "output" : 13
                }
            ]
        }
    ],
    "asset" : {
        "generator" : "Khronos Blender glTF 2.0 exporter",
        "version" : "2.0"
    },
    "bufferViews" : [
        {
            "buffer" : 0,
            "byteLength" : 2592,
            "byteOffset" : 0,
            "target" : 34963
        },
        {
            "buffer" : 0,
            "byteLength" : 3192,
            "byteOffset" : 2592,
            "target" : 34962
        },
        {
            "buffer" : 0,
            "byteLength" : 3192,
            "byteOffset" : 5784,
            "target" : 34962
        },
        {
            "buffer" : 0,
            "byteLength" : 4256,
            "byteOffset" : 8976,
            "target" : 34962
        },
        {
            "buffer" : 0,
            "byteLength" : 2128,
            "byteOffset" : 13232,
            "target" : 34962
        },
        {
            "buffer" : 0,
            "byteLength" : 2128,
            "byteOffset" : 15360,
            "target" : 34962
        },
        {
            "buffer" : 0,
            "byteLength" : 4256,
            "byteOffset" : 17488,
            "target" : 34962
        },
        {
            "buffer" : 0,
            "byteLength" : 64,
            "byteOffset" : 21744
        },
        {
            "buffer" : 0,
            "byteLength" : 720,
            "byteOffset" : 21808
        },
        {
            "buffer" : 0,
            "byteLength" : 2160,
            "byteOffset" : 22528
        },
        {
            "buffer" : 0,
            "byteLength" : 720,
            "byteOffset" : 24688
        },
        {
            "buffer" : 0,
            "byteLength" : 2880,
            "byteOffset" : 25408
        },
        {
            "buffer" : 0,
            "byteLength" : 720,
            "byteOffset" : 28288
        },
        {
            "buffer" : 0,
            "byteLength" : 2160,
            "byteOffset" : 29008
        }
    ],
    "buffers" : [
        {
            "byteLength" : 31168,
            "uri" : "cheese.bin"
        }
    ],
    "images" : [
        {
            "name" : "cheese",
            "uri" : "cheese.png"
        },
        {
            "name" : "cheese-normal",
            "uri" : "cheese-normal.png"
        }
    ],
    "materials" : [
        {
            "name" : "cheese",
            "normalTexture" : {
                "index" : 1
            },
            "pbrMetallicRoughness" : {
                "baseColorTexture" : {
                    "index" : 0
                },
                "metallicFactor" : 0.0,
                "roughnessFactor" : 0.4000000059604645
            }
        }
    ],
    "meshes" : [
        {
            "name" : "Cube",
            "primitives" : [
                {
                    "attributes" : {
                        "JOINTS_0" : 5,
                        "NORMAL" : 2,
                        "POSITION" : 1,
                        "TANGENT" : 3,
                        "TEXCOORD_0" : 4,
                        "WEIGHTS_0" : 6
                    },
                    "indices" : 0,
                    "material" : 0
                }
            ]
        }
    ],
    "nodes" : [
        {
            "children" : [
                1,
                2
            ],
            "name" : "Armature",
            "translation" : [
                -0.05121573805809021,
                0.06308937072753906,
                0.3752883970737457
            ]
        },
        {
            "mesh" : 0,
            "name" : "cheese",
            "skin" : 0,
            "translation" : [
                0.05121573805809021,
                -0.06308937072753906,
                -0.3752883970737457
            ]
        },
        {
            "name" : "Armature_Cheese"
        }
    ],
    "samplers" : [
        {}
    ],
    "scene" : 0,
    "scenes" : [
        {
            "name" : "Scene",
            "nodes" : [
                0
            ]
        }
    ],
    "skins" : [
        {
            "inverseBindMatrices" : 7,
            "joints" : [
                2
            ],
            "skeleton" : 0
        }
    ],
    "textures" : [
        {
            "sampler" : 0,
            "source" : 0
        },
        {
            "sampler" : 0,
            "source" : 1
        }
    ]
}
